<?xml version="1.0" encoding="UTF-8"?> <!-- Generator: Adobe Illustrator 24.0.1, SVG Export Plug-In . SVG Version: 6.00 Build 0) --> <svg xmlns="http://www.w3.org/2000/svg" xmlns:xlink="http://www.w3.org/1999/xlink" version="1.1" x="0px" y="0px" viewBox="0 0 300 300" style="enable-background:new 0 0 300 300;" xml:space="preserve"> <style type="text/css"> .st0{fill:#EAEAEA;} .st1{fill:none;stroke:#264263;stroke-width:8.1507;stroke-linecap:round;stroke-miterlimit:10;} .st2{fill:#264362;} .st3{fill:#264263;} .st4{fill:#F7BA4E;} .st5{fill:#FFFFFF;} </style> <g id="badge"> <g> <rect x="51.13" y="51.19" transform="matrix(0.7071 -0.7071 0.7071 0.7071 -62.109 149.8624)" class="st0" width="197.43" height="197.43"></rect> <rect x="47.97" y="48.07" transform="matrix(0.7071 -0.7071 0.7071 0.7071 -62.1641 149.935)" class="st1" width="203.87" height="203.87"></rect> <g> <polyline class="st2" points="222.29,111.67 222.29,111.67 221.82,111.67 184.22,73.56 144.24,111.67 138.62,111.67 162.52,88.56 160.08,83.74 132.06,111.67 128.25,111.67 158.84,81.62 157.01,77.84 121.58,111.67 115.68,111.67 135.15,92.63 132.64,87.52 109.09,111.67 105.42,111.67 131.4,85.4 129.57,81.62 98.74,111.67 93.44,111.67 110.38,94.24 108.1,89.54 86.85,111.67 83.16,111.67 106.86,87.42 105.03,83.64 76.47,111.67 61.28,111.67 "></polyline> <path class="st3" d="M20.75,149.94l37.57-38.45h182.47l38.03,38.03l-34.66,34.6l-189.16,0.05 C54.99,184.17,21.66,150.86,20.75,149.94z"></path> </g> <polygon class="st4" points="60.71,189.85 238.73,189.78 149.86,279.15 "></polygon> <g> <path class="st5" d="M112.41,170.28l-3.58-9.04H91l-3.38,9.04h-12.1l19.33-46.07h10.8l19.13,46.07H112.41z M100.04,136.5 l-5.86,15.81h11.58L100.04,136.5z"></path> <path class="st5" d="M161.93,138.39c0,2.69-0.5,4.96-1.5,6.8c-1,1.84-2.34,3.33-4.03,4.46c-1.69,1.13-3.64,1.95-5.86,2.47 c-2.21,0.52-4.51,0.78-6.9,0.78h-5.53v17.38h-11.13V124.2h16.92c2.51,0,4.87,0.25,7.06,0.75c2.19,0.5,4.1,1.3,5.73,2.41 c1.63,1.11,2.91,2.56,3.84,4.36C161.46,133.52,161.93,135.75,161.93,138.39z M150.8,138.46c0-1.08-0.22-1.97-0.65-2.67 c-0.43-0.69-1.02-1.24-1.76-1.63c-0.74-0.39-1.57-0.65-2.5-0.78c-0.93-0.13-1.9-0.2-2.9-0.2h-4.88v10.87h4.69 c1.04,0,2.04-0.09,2.99-0.26c0.95-0.17,1.81-0.48,2.57-0.91c0.76-0.43,1.36-1.01,1.79-1.72 C150.58,140.44,150.8,139.54,150.8,138.46z"></path> <path class="st5" d="M207.8,170.28l0.26-32.6h-0.2l-11.97,32.6h-7.81l-11.65-32.6h-0.2l0.26,32.6h-10.48V124.2h15.83l10.49,29.54 h0.26l10.03-29.54h16.09v46.07H207.8z"></path> </g> <g> <g> <path class="st3" d="M159.42,250.42c0,1.67-0.29,3.11-0.88,4.33c-0.59,1.22-1.38,2.23-2.37,3.02c-0.99,0.8-2.11,1.39-3.37,1.79 c-1.26,0.4-2.55,0.6-3.89,0.6c-1.23,0-2.41-0.16-3.52-0.48c-1.12-0.32-2.13-0.78-3.04-1.37s-1.69-1.32-2.35-2.18 c-0.65-0.86-1.14-1.83-1.44-2.91l5.89-1.81c0.28,0.95,0.81,1.73,1.6,2.35c0.78,0.62,1.71,0.92,2.79,0.92c1.1,0,2.06-0.33,2.87-1 c0.81-0.67,1.21-1.66,1.21-2.96c0-0.79-0.17-1.46-0.5-2s-0.76-0.97-1.29-1.29c-0.53-0.32-1.12-0.54-1.79-0.67 c-0.67-0.13-1.33-0.19-2-0.19c-0.98,0-2.08,0.11-3.33,0.33s-2.35,0.51-3.33,0.87l0.65-15.59h16.71v5.54h-10.97l-0.23,4.31 c0.41-0.1,0.87-0.17,1.37-0.21c0.5-0.04,0.96-0.06,1.37-0.06c1.36,0,2.64,0.18,3.85,0.54s2.25,0.9,3.14,1.64 c0.89,0.73,1.58,1.64,2.1,2.71C159.16,247.73,159.42,248.99,159.42,250.42z"></path> </g> <g> <path class="st3" d="M122.15,205.76c-0.56-0.72-1.3-1.29-2.21-1.71s-1.79-0.64-2.64-0.64c-0.44,0-0.88,0.04-1.33,0.12 c-0.45,0.08-0.85,0.22-1.21,0.44c-0.36,0.22-0.66,0.5-0.91,0.85c-0.24,0.35-0.37,0.79-0.37,1.33c0,0.46,0.1,0.85,0.29,1.16 c0.19,0.31,0.47,0.58,0.85,0.81c0.37,0.23,0.81,0.44,1.33,0.64c0.51,0.19,1.09,0.39,1.73,0.6c0.92,0.31,1.89,0.65,2.89,1.02 c1,0.37,1.91,0.87,2.73,1.48c0.82,0.62,1.5,1.38,2.04,2.29s0.81,2.05,0.81,3.41c0,1.57-0.29,2.92-0.87,4.06 c-0.58,1.14-1.35,2.09-2.33,2.83c-0.98,0.75-2.09,1.3-3.35,1.66c-1.26,0.36-2.55,0.54-3.89,0.54c-1.95,0-3.84-0.34-5.66-1.02 s-3.34-1.65-4.54-2.91l4.31-4.39c0.67,0.82,1.55,1.51,2.64,2.06c1.09,0.55,2.18,0.83,3.25,0.83c0.49,0,0.96-0.05,1.42-0.15 c0.46-0.1,0.87-0.27,1.21-0.5c0.35-0.23,0.62-0.54,0.83-0.92c0.21-0.39,0.31-0.85,0.31-1.39c0-0.51-0.13-0.95-0.38-1.31 c-0.26-0.36-0.62-0.69-1.1-0.98s-1.07-0.56-1.77-0.81c-0.71-0.24-1.51-0.51-2.41-0.79c-0.87-0.28-1.73-0.62-2.56-1 c-0.83-0.39-1.58-0.88-2.23-1.48c-0.66-0.6-1.18-1.33-1.58-2.19c-0.4-0.86-0.6-1.91-0.6-3.14c0-1.51,0.31-2.81,0.92-3.89 c0.62-1.08,1.42-1.96,2.43-2.66c1-0.69,2.13-1.2,3.39-1.52c1.26-0.32,2.53-0.48,3.81-0.48c1.54,0,3.11,0.28,4.72,0.85 c1.6,0.56,3.01,1.4,4.22,2.5L122.15,205.76z"></path> <path class="st3" d="M147.44,225.93l-2.12-5.35h-10.55l-2,5.35h-7.16l11.43-27.26h6.39l11.32,27.26H147.44z M140.13,205.95 l-3.46,9.36h6.85L140.13,205.95z"></path> <path class="st3" d="M162.77,204.3v5.62h10.55v5.43h-10.55v10.59h-6.51v-27.26h17.94v5.62H162.77z"></path> <path class="st3" d="M195.57,216.58c0,0.26,0,0.51,0,0.77s-0.01,0.5-0.04,0.73h-13.9c0.05,0.54,0.21,1.03,0.48,1.46 s0.62,0.81,1.04,1.14c0.42,0.32,0.9,0.57,1.42,0.75c0.53,0.18,1.07,0.27,1.64,0.27c1,0,1.85-0.19,2.54-0.56 c0.69-0.37,1.26-0.85,1.69-1.44l4.39,2.77c-0.9,1.31-2.09,2.32-3.56,3.02c-1.48,0.71-3.19,1.06-5.14,1.06 c-1.44,0-2.8-0.23-4.08-0.67c-1.28-0.45-2.41-1.1-3.37-1.96c-0.96-0.86-1.72-1.92-2.27-3.18s-0.83-2.7-0.83-4.31 c0-1.56,0.27-2.98,0.81-4.25s1.27-2.35,2.2-3.23c0.92-0.89,2.01-1.57,3.27-2.06s2.62-0.73,4.08-0.73c1.41,0,2.71,0.24,3.89,0.71 s2.19,1.16,3.04,2.06c0.85,0.9,1.51,1.99,1.98,3.27C195.33,213.47,195.57,214.93,195.57,216.58z M189.75,214.15 c0-1-0.31-1.86-0.94-2.58c-0.63-0.72-1.57-1.08-2.83-1.08c-0.62,0-1.18,0.1-1.69,0.29s-0.96,0.46-1.35,0.79 c-0.38,0.33-0.69,0.73-0.92,1.17c-0.23,0.45-0.36,0.92-0.38,1.4H189.75z"></path> </g> <g> <path class="st3" d="M194.24,205.79c0-0.55,0.1-1.06,0.31-1.54s0.49-0.9,0.85-1.26s0.78-0.64,1.26-0.85 c0.48-0.21,1-0.31,1.54-0.31c0.55,0,1.06,0.1,1.54,0.31s0.9,0.49,1.26,0.85c0.36,0.35,0.64,0.77,0.85,1.26 c0.21,0.48,0.31,1,0.31,1.54c0,0.55-0.1,1.06-0.31,1.53c-0.21,0.48-0.5,0.89-0.85,1.25c-0.36,0.35-0.78,0.63-1.26,0.84 c-0.48,0.2-1,0.31-1.54,0.31c-0.55,0-1.06-0.1-1.54-0.31c-0.48-0.2-0.9-0.48-1.26-0.84s-0.65-0.77-0.85-1.25 C194.34,206.84,194.24,206.33,194.24,205.79z M194.87,205.79c0,0.45,0.09,0.88,0.26,1.29c0.17,0.41,0.41,0.76,0.71,1.07 c0.3,0.31,0.66,0.55,1.06,0.72c0.41,0.17,0.84,0.26,1.31,0.26s0.9-0.09,1.31-0.26c0.41-0.17,0.76-0.42,1.06-0.72 c0.3-0.31,0.54-0.67,0.71-1.07c0.17-0.41,0.26-0.84,0.26-1.29c0-0.46-0.09-0.9-0.26-1.31c-0.17-0.41-0.41-0.76-0.71-1.06 c-0.3-0.3-0.66-0.54-1.06-0.72c-0.41-0.17-0.84-0.26-1.31-0.26s-0.9,0.09-1.31,0.26c-0.41,0.17-0.76,0.41-1.06,0.72 c-0.3,0.3-0.54,0.66-0.71,1.06C194.95,204.89,194.87,205.32,194.87,205.79z M196.66,203.54h1.57c0.21,0,0.41,0.02,0.61,0.07 c0.2,0.05,0.38,0.12,0.53,0.23c0.16,0.1,0.28,0.24,0.38,0.4s0.14,0.37,0.14,0.61c0,0.33-0.09,0.59-0.28,0.79 c-0.19,0.2-0.44,0.34-0.75,0.41l1.2,1.95h-0.98l-1.05-1.87h-0.58V208h-0.8V203.54z M198.11,205.49c0.23,0,0.45-0.04,0.66-0.13 c0.21-0.09,0.31-0.26,0.31-0.53c0-0.24-0.1-0.41-0.29-0.49s-0.39-0.12-0.6-0.12h-0.73v1.27H198.11z"></path> </g> </g> </g> </g> <g id="Layer_2"> </g> </svg> 