<?xml version="1.0" standalone="no"?>
<!DOCTYPE svg PUBLIC "-//W3C//DTD SVG 20010904//EN"
 "http://www.w3.org/TR/2001/REC-SVG-20010904/DTD/svg10.dtd">
<svg version="1.0" xmlns="http://www.w3.org/2000/svg"
 width="512.000000pt" height="512.000000pt" viewBox="0 0 512.000000 512.000000"
 preserveAspectRatio="xMidYMid meet">
<metadata>
Created by potrace 1.11, written by Peter Selinger 2001-2013
</metadata>
<g transform="translate(0.000000,512.000000) scale(0.100000,-0.100000)"
fill="#000000" stroke="none">
<path d="M3430 4123 c-25 -8 -53 -18 -62 -24 -10 -5 -26 -9 -36 -9 -10 0 -41
-7 -68 -15 -75 -24 -135 -42 -179 -53 -22 -6 -74 -21 -115 -33 -288 -82 -287
-81 -353 -74 -34 3 -132 18 -217 32 -85 14 -180 29 -210 33 -30 4 -129 19
-220 34 -91 14 -208 33 -260 41 -52 9 -114 20 -138 25 -195 45 -368 -52 -443
-249 -35 -91 -25 -200 27 -300 8 -14 14 -31 14 -37 0 -6 -36 -21 -80 -34 -44
-13 -80 -27 -80 -32 0 -4 -7 -8 -16 -8 -9 0 -46 -30 -83 -67 -60 -60 -70 -77
-89 -140 -27 -87 -27 -104 -2 -182 28 -89 70 -133 242 -256 84 -60 210 -151
280 -202 70 -51 132 -93 137 -93 5 0 11 -4 13 -9 2 -4 43 -36 92 -70 49 -34
112 -80 142 -101 58 -44 24 21 423 -792 329 -670 335 -682 393 -738 123 -117
344 -120 469 -7 48 43 95 119 175 285 43 89 85 164 92 167 7 2 24 0 38 -5 102
-39 310 46 380 156 45 71 63 156 74 364 5 96 14 263 20 370 8 155 15 203 30
235 10 22 104 214 209 427 105 213 200 415 212 450 33 99 18 211 -43 323 -42
77 -158 152 -252 164 l-51 6 -6 90 c-4 60 -13 106 -27 138 -30 65 -106 144
-174 178 -50 25 -68 29 -135 28 -43 -1 -98 -8 -123 -16z"/>
</g>
</svg>
